<?xml version="1.0" standalone="no"?><!DOCTYPE svg PUBLIC "-//W3C//DTD SVG 1.1//EN" "http://www.w3.org/Graphics/SVG/1.1/DTD/svg11.dtd"><svg t="1533089976169" class="icon" style="" viewBox="0 0 1024 1024" version="1.1" xmlns="http://www.w3.org/2000/svg" p-id="5801" xmlns:xlink="http://www.w3.org/1999/xlink" width="200" height="200"><defs><style type="text/css"></style></defs><path d="M982.959 453.132l-63.399 0c-27.171-203.78-199.249-362.275-407.56-362.275-81.513 0-153.969 22.64-217.363 63.399-13.583 9.057-22.64 22.64-22.64 36.228 0 22.64 18.114 40.754 40.754 40.754 9.057 0 18.114-4.526 22.64-9.057 49.811-31.697 108.684-49.811 172.078-49.811 163.026 0 298.876 122.267 326.047 280.762l-72.456 0c-9.057 0-13.583 9.057-13.583 13.583s0 4.526 4.526 9.057l108.684 190.192c4.526 4.526 9.057 9.057 13.583 9.057s9.057-4.526 13.583-9.057l0 0 108.684-190.192c0-4.526 4.526-4.526 4.526-9.057-4.526-4.526-9.057-13.583-18.114-13.583l0 0 0 0z" p-id="5802" fill="#1296db"></path><path d="M738.42 770.122c-9.057 0-22.64 4.526-27.171 13.583 0 0 0 0 0 0-54.342 40.754-122.267 67.925-199.249 67.925-181.135 0-330.578-149.438-330.578-335.104 0-4.526 0-4.526 0-9.057l72.456 0c9.057 0 13.583-9.057 13.583-13.583s0-4.526-4.526-9.057l-54.342-104.153-54.342-95.096c-4.526-4.526-9.057-9.057-13.583-9.057s-9.057 4.526-13.583 9.057l0 0-108.684 190.192c0 4.526-4.526 4.526-4.526 9.057 0 9.057 9.057 13.583 13.583 13.583l63.399 0c0 4.526 0 4.526 0 9.057 0 230.951 185.666 421.143 412.086 421.143 95.096 0 181.135-31.697 249.065-86.039 0 0 0 0 4.526-4.526 0 0 0 0 0 0s0 0 0 0c9.057-9.057 13.583-18.114 13.583-31.697 9.057-18.114-9.057-36.228-31.697-36.228l0 0 0 0z" p-id="5803" fill="#1296db"></path></svg>