<?xml version="1.0" standalone="no"?><!DOCTYPE svg PUBLIC "-//W3C//DTD SVG 1.1//EN" "http://www.w3.org/Graphics/SVG/1.1/DTD/svg11.dtd"><svg class="icon" width="200px" height="150.59px" viewBox="0 0 1360 1024" version="1.1" xmlns="http://www.w3.org/2000/svg"><path d="M377.055013 124.34401a56.399061 56.399061 0 0 1 22.741557-3.183817h221.957595l-65.950515 145.091132 677.698394 353.403794v-136.449341a25.470544 25.470544 0 0 0-15.464258-27.289868l-75.047138-48.212101a24.10605 24.10605 0 0 1-15.009428-25.925375V283.98974a40.02514 40.02514 0 0 0 0-15.464259 40.479971 40.479971 0 0 0-14.099765-15.464259L807.7801 18.368355a86.872747 86.872747 0 0 0-25.925375-15.464258 86.872747 86.872747 0 0 0-26.380206-2.728987h-246.518476a15.009428 15.009428 0 0 0-12.280441 3.638649 24.10605 24.10605 0 0 0-4.09348 7.277298 276.537331 276.537331 0 0 1-23.196388 65.040853H372.506701c-19.102908 0-18.193245 5.457974-25.470543 22.741557l-18.648077 44.573451a19.102908 19.102908 0 0 0 0 10.461116c0 11.370778 20.01257 9.096623 27.289868 0a129.172043 129.172043 0 0 1 18.648077-28.654361z m818.696047 363.86491v31.383349L643.131228 218.039225l20.01257-45.483114 532.607262 313.378654z m-410.712517-417.080153l318.381796 220.138271v19.102908l-331.571899-212.406141 11.82561-25.015713zM518.962328 45.203393h245.153983l-40.934803 85.508253-57.308723-37.750984h34.112335l17.738415-33.657504h-47.75727l-13.644934 25.925375-13.644934-8.641792h-10.461116l9.096623-16.828752h-49.121763l-9.096623 16.828752H495.76594l20.922232-29.564024zM551.255338 212.12642z"  /><path d="M579.454869 150.269385h-50.486256l-18.193246 34.112336h50.941088l17.738414-34.112336zM551.255338 212.12642h-50.486256l-14.554596 34.112335h50.486256l14.554596-34.112335zM451.647319 150.269385l-18.193245 34.112336h50.486256l18.193246-34.112336H451.647319zM380.693662 150.269385l-18.193246 34.112336h50.486257l18.193245-34.112336H380.693662zM965.606504 549.156293a433.908905 433.908905 0 0 1-64.586021-35.476829l-67.315008-36.841322c-45.483114-24.560881-90.966227-48.212101-136.449342-71.408489a2133.612865 2133.612865 0 0 0-272.898682-118.710927 1079.76912 1079.76912 0 0 0-231.96388-52.30558c-39.570309-4.09348-181.932455-11.370778-190.574246 17.738414A179.203468 179.203468 0 0 0 30.473686 359.94654c18.193245 42.754127 36.386491 84.598592 57.308723 125.988225a1312.642662 1312.642662 0 0 1 100.062851 223.776919 335.210548 335.210548 0 0 1 14.099765 136.449341c-13.644934 100.972512-77.776124 20.467401-82.324436 177.838975H1319.010298a870.546797 870.546797 0 0 1 15.464259-181.932455l21.831894-107.340148a3086.484098 3086.484098 0 0 1-390.699947-185.571104zM336.12021 598.278056a70.953657 70.953657 0 0 1-60.947372-77.776125 70.953657 70.953657 0 0 1 60.947372-77.776124 70.953657 70.953657 0 0 1 60.947373 77.776124 70.953657 70.953657 0 0 1-60.947373 77.776125z"  /></svg>
